<svg version="1.1" xmlns="http://www.w3.org/2000/svg" viewBox="0 0 417.74171095707675 356.83369047684926"
    width="417.74171095707675" height="356.83369047684926">
    <!-- svg-source:excalidraw -->

    <defs>
        <style class="style-fonts">
            @font-face {
                font-family: "Virgil";
                src: url("https://excalidraw.com/Virgil.woff2");
            }

            @font-face {
                font-family: "Cascadia";
                src: url("https://excalidraw.com/Cascadia.woff2");
            }
        </style>

    </defs>
    <rect x="0" y="0" width="417.74171095707675" height="356.83369047684926" fill="#ffffff"></rect>
    <g stroke-linecap="round">
        <g transform="translate(81.89991936745037 10.574012217670656) rotate(0 1.4636412598662218 165.07541048569198)">
            <path d="M-0.7 0.31 C-0.43 55.37, 0.71 274.39, 1.26 329.52 M1.14 -0.57 C1.83 54.7, 3.45 275.75, 3.62 330.72"
                stroke="#1e1e1e" stroke-width="1" fill="none"></path>
        </g>
    </g>
    <mask></mask>
    <g stroke-linecap="round">
        <g transform="translate(29.356248752831334 314.1496260998971) rotate(0 188.69895760128713 0.2651362876407575)">
            <path
                d="M0.31 -0.65 C63.11 -0.42, 313.13 0.68, 376.01 0.68 M-0.99 1.62 C62.29 1.56, 315.33 -0.87, 378.39 -1.09"
                stroke="#1e1e1e" stroke-width="1" fill="none"></path>
        </g>
    </g>
    <mask></mask>
    <g stroke-linecap="round">
        <g transform="translate(75.27038493977534 268.2365367966844) rotate(0 119.39772778872248 -106.73342568367417)">
            <path
                d="M-0.64 0.68 C39.21 -34.9, 199.43 -178.4, 239.44 -214.14 M1.22 -0.01 C40.98 -35.39, 199.34 -177.52, 238.98 -212.96"
                stroke="#1e1e1e" stroke-width="1" fill="none"></path>
        </g>
    </g>
    <mask></mask>
    <g transform="translate(288.8116075476553 322.54734734228225) rotate(0 26.47197723388672 10)"><text x="0" y="0"
            font-family="Virgil, Segoe UI Emoji" font-size="16px" fill="#1e1e1e" text-anchor="start"
            style="white-space: pre;" direction="ltr" dominant-baseline="text-before-edge">Pi dBm</text></g>
    <g transform="translate(35.01687043197899 31.054209721861184) rotate(269.1766074111307 29.1519775390625 10)"><text
            x="0" y="0" font-family="Virgil, Segoe UI Emoji" font-size="16px" fill="#1e1e1e" text-anchor="start"
            style="white-space: pre;" direction="ltr" dominant-baseline="text-before-edge">Po dBm</text></g>
    <g stroke-linecap="round">
        <g transform="translate(165.97126813371892 313.57104647644894) rotate(0 58.18148502886754 -137.41782987867919)">
            <path
                d="M0.58 -0.95 C20.26 -46.52, 97.54 -228.41, 116.95 -274.14 M-0.58 1.17 C19.03 -44.7, 96.45 -230.08, 115.91 -276"
                stroke="#1e1e1e" stroke-width="1" fill="none"></path>
        </g>
    </g>
    <mask></mask>
    <g stroke-linecap="round">
        <g
            transform="translate(246.9301500051888 110.99536776339414) rotate(0 -82.99744995920867 -0.07471710431428846)">
            <path d="M-0.43 -0.43 C-28.13 -0.4, -138.18 0.14, -165.57 0.28" stroke="#f08c00" stroke-width="4.5"
                fill="none" stroke-dasharray="1.5 10"></path>
        </g>
    </g>
    <mask></mask>
    <g stroke-linecap="round">
        <g transform="translate(84.95410012734169 115.72060953740163) rotate(0 -0.1100743736375307 72.40682601764269)">
            <path d="M0.24 -0.53 C-0.03 23.77, -0.23 120.87, -0.46 145.34" stroke="#f08c00" stroke-width="4.5"
                fill="none" stroke-dasharray="1.5 10"></path>
        </g>
    </g>
    <mask></mask>
    <g stroke-linecap="round">
        <g transform="translate(83.15415108974184 313.51690908114165) rotate(0 81.60295786251925 0.612672126584414)">
            <path d="M-0.99 0.26 C26.48 0.61, 136.5 1.07, 164.19 0.94" stroke="#f08c00" stroke-width="4.5" fill="none"
                stroke-dasharray="1.5 10"></path>
        </g>
    </g>
    <mask></mask>
    <g stroke-linecap="round">
        <g transform="translate(250.9057103734076 305.3286448671554) rotate(0 -0.15746403893058414 9.05926705747305)">
            <path d="M0 0 C-0.05 3.02, -0.26 15.1, -0.31 18.12 M0 0 C-0.05 3.02, -0.26 15.1, -0.31 18.12"
                stroke="#1e1e1e" stroke-width="2" fill="none"></path>
        </g>
    </g>
    <mask></mask>
    <g transform="translate(234.71195699788382 326.83369047684926) rotate(0 19.455978393554688 10)"><text x="0" y="0"
            font-family="Virgil, Segoe UI Emoji" font-size="16px" fill="#1e1e1e" text-anchor="start"
            style="white-space: pre;" direction="ltr" dominant-baseline="text-before-edge">IIP3</text></g>
    <g stroke-linecap="round">
        <g transform="translate(250.60449536731448 110.90859217317848) rotate(0 -1.570992247503682 81.81602167090108)">
            <path d="M0 0 C-0.52 27.27, -2.62 136.36, -3.14 163.63" stroke="#1971c2" stroke-width="2.5" fill="none"
                stroke-dasharray="8 10"></path>
        </g>
        <g transform="translate(250.60449536731448 110.90859217317848) rotate(0 -1.570992247503682 81.81602167090108)">
            <path d="M9.72 28.38 C6.95 20.31, 4.19 12.24, 0 0" stroke="#1971c2" stroke-width="2.5" fill="none"></path>
        </g>
        <g transform="translate(250.60449536731448 110.90859217317848) rotate(0 -1.570992247503682 81.81602167090108)">
            <path d="M-10.8 27.99 C-7.73 20.03, -4.66 12.07, 0 0" stroke="#1971c2" stroke-width="2.5" fill="none">
            </path>
        </g>
        <g transform="translate(250.60449536731448 110.90859217317848) rotate(0 -1.570992247503682 81.81602167090108)">
            <path d="M-12.86 135.25 C-10.1 143.32, -7.33 151.39, -3.14 163.63" stroke="#1971c2" stroke-width="2.5"
                fill="none"></path>
        </g>
        <g transform="translate(250.60449536731448 110.90859217317848) rotate(0 -1.570992247503682 81.81602167090108)">
            <path d="M7.66 135.64 C4.59 143.6, 1.52 151.56, -3.14 163.63" stroke="#1971c2" stroke-width="2.5"
                fill="none"></path>
        </g>
    </g>
    <mask></mask>
    <g stroke-linecap="round">
        <g transform="translate(184.58826771808776 275.0961043297593) rotate(0 31.550432366447808 0.2752950348564127)">
            <path
                d="M-0.92 0.68 C5.85 0.9, 30.58 1.69, 41.4 1.42 C52.22 1.15, 60.14 -0.66, 64.02 -0.92 M0.8 -0.01 C7.34 -0.19, 30.08 -0.57, 40.47 -0.6 C50.87 -0.63, 59.02 -0.39, 63.15 -0.16"
                stroke="#1971c2" stroke-width="2" fill="none"></path>
        </g>
        <g transform="translate(184.58826771808776 275.0961043297593) rotate(0 31.550432366447808 0.2752950348564127)">
            <path d="M10.58 -2.92 C6.15 -1.91, 0.99 0.09, -1.21 0.79 M9.39 -3.15 C7.01 -2.57, 4.34 -1.13, -0.93 1.12"
                stroke="#1971c2" stroke-width="2" fill="none"></path>
        </g>
        <g transform="translate(184.58826771808776 275.0961043297593) rotate(0 31.550432366447808 0.2752950348564127)">
            <path d="M10.39 4.9 C6.02 3.06, 0.93 2.19, -1.21 0.79 M9.19 4.68 C6.83 3.35, 4.21 2.87, -0.93 1.12"
                stroke="#1971c2" stroke-width="2" fill="none"></path>
        </g>
        <g transform="translate(184.58826771808776 275.0961043297593) rotate(0 31.550432366447808 0.2752950348564127)">
            <path d="M52.89 3.33 C56.41 1.92, 59.2 1.31, 62.86 -0.05 M51.7 3.11 C54.6 1.83, 57.25 1.53, 63.14 0.28"
                stroke="#1971c2" stroke-width="2" fill="none"></path>
        </g>
        <g transform="translate(184.58826771808776 275.0961043297593) rotate(0 31.550432366447808 0.2752950348564127)">
            <path
                d="M53.22 -4.49 C56.63 -3.04, 59.3 -0.79, 62.86 -0.05 M52.03 -4.71 C54.88 -4.08, 57.44 -2.47, 63.14 0.28"
                stroke="#1971c2" stroke-width="2" fill="none"></path>
        </g>
    </g>
    <mask></mask>
    <g transform="translate(212.8661333518255 274.22150712753955) rotate(0 4.551994323730469 10)"><text x="0" y="0"
            font-family="Virgil, Segoe UI Emoji" font-size="16px" fill="#1971c2" text-anchor="start"
            style="white-space: pre;" direction="ltr" dominant-baseline="text-before-edge">d</text></g>
    <g transform="translate(263.4244635503301 179.4939276074822) rotate(0 9.999992370605469 10)"><text x="0" y="0"
            font-family="Virgil, Segoe UI Emoji" font-size="16px" fill="#1971c2" text-anchor="start"
            style="white-space: pre;" direction="ltr" dominant-baseline="text-before-edge">3d</text></g>
    <g stroke-linecap="round">
        <g
            transform="translate(181.19187765508332 273.1909656396515) rotate(0 -0.032510657791704034 -50.37447511934346)">
            <path d="M-0.14 0.48 C-0.25 -16.27, 0.2 -84.03, 0.07 -101.23" stroke="#e03131" stroke-width="2.5"
                fill="none" stroke-dasharray="1.5 8"></path>
        </g>
    </g>
    <mask></mask>
    <g stroke-linecap="round">
        <g
            transform="translate(181.08753196623252 175.06267236468545) rotate(0 -0.4808960830232536 -31.104681520738097)">
            <path
                d="M-0.41 -0.96 C-0.73 -6.02, -0.61 -20.68, -0.96 -31.08 C-1.31 -41.48, -2.4 -57.88, -2.53 -63.37 M1.57 1.16 C1.07 -4.24, -1.26 -22.56, -1.56 -33.1 C-1.86 -43.64, -0.2 -57.05, -0.22 -62.07"
                stroke="#1971c2" stroke-width="2" fill="none"></path>
        </g>
        <g
            transform="translate(181.08753196623252 175.06267236468545) rotate(0 -0.4808960830232536 -31.104681520738097)">
            <path
                d="M-7.42 -15.03 C-3.79 -11.69, -1.93 -4.96, -1.29 -1.05 M-6.12 -16.22 C-4.95 -10.36, -1.78 -5.73, -0.8 -0.77"
                stroke="#1971c2" stroke-width="2" fill="none"></path>
        </g>
        <g
            transform="translate(181.08753196623252 175.06267236468545) rotate(0 -0.4808960830232536 -31.104681520738097)">
            <path d="M3.54 -15.21 C3.01 -11.84, 0.71 -5.05, -1.29 -1.05 M4.84 -16.4 C2.51 -10.58, 2.17 -5.9, -0.8 -0.77"
                stroke="#1971c2" stroke-width="2" fill="none"></path>
        </g>
        <g
            transform="translate(181.08753196623252 175.06267236468545) rotate(0 -0.4808960830232536 -31.104681520738097)">
            <path
                d="M3.2 -45.85 C3.04 -54.05, 0.95 -58.82, -1.09 -62.16 M4.5 -47.05 C2.04 -50.97, 1.87 -56.03, -0.6 -61.88"
                stroke="#1971c2" stroke-width="2" fill="none"></path>
        </g>
        <g
            transform="translate(181.08753196623252 175.06267236468545) rotate(0 -0.4808960830232536 -31.104681520738097)">
            <path
                d="M-7.75 -46.42 C-3.75 -54.37, -1.69 -58.92, -1.09 -62.16 M-6.44 -47.62 C-5.4 -51.25, -2.07 -56.13, -0.6 -61.88"
                stroke="#1971c2" stroke-width="2" fill="none"></path>
        </g>
    </g>
    <mask></mask>
    <g transform="translate(186.40487301276607 129.77377302562388) rotate(0 4.551994323730469 10)"><text x="0" y="0"
            font-family="Virgil, Segoe UI Emoji" font-size="16px" fill="#1971c2" text-anchor="start"
            style="white-space: pre;" direction="ltr" dominant-baseline="text-before-edge">d</text></g>
    <g stroke-linecap="round">
        <g transform="translate(83.05757997046317 261.98820850251286) rotate(0 24.224321658500912 0.18522815662919356)">
            <path d="M0.14 1.12 C8.03 1, 40.24 -0.54, 48.31 -0.75" stroke="#1e1e1e" stroke-width="2.5" fill="none"
                stroke-dasharray="1.5 8"></path>
        </g>
    </g>
    <mask></mask>
    <g transform="translate(104.264632611146 244.53748519862017) rotate(0 5.071885098175585 9.112200345874896)"
        stroke="none">
        <path fill="#1e1e1e"
            d="M 0.86,-1.48 Q 0.86,-1.48 3.23,-0.88 5.61,-0.28 7.00,0.84 8.38,1.96 9.46,3.74 10.53,5.52 11.21,7.40 11.89,9.29 12.02,10.49 12.16,11.70 12.21,13.01 12.27,14.32 11.59,15.80 10.91,17.29 10.92,17.45 10.93,17.60 10.91,17.76 10.88,17.92 10.81,18.06 10.75,18.21 10.65,18.33 10.56,18.46 10.43,18.55 10.31,18.65 10.16,18.72 10.02,18.78 9.86,18.81 9.71,18.84 9.55,18.83 9.39,18.82 9.24,18.78 9.09,18.73 8.95,18.65 8.82,18.57 8.71,18.46 8.59,18.35 8.51,18.21 8.43,18.08 8.38,17.93 8.33,17.77 8.57,18.17 8.81,18.57 8.67,18.41 8.53,18.25 8.44,18.06 8.35,17.86 8.33,17.65 8.31,17.44 8.36,17.23 8.41,17.03 8.52,16.85 8.63,16.67 8.80,16.53 8.96,16.40 9.16,16.32 9.36,16.25 9.57,16.24 9.78,16.23 9.99,16.29 10.19,16.35 10.37,16.47 10.54,16.59 10.67,16.76 10.79,16.93 10.86,17.14 10.92,17.34 10.92,17.55 10.92,17.76 10.84,17.96 10.77,18.16 10.64,18.33 10.51,18.50 10.33,18.62 10.16,18.73 9.95,18.79 9.75,18.84 9.53,18.82 9.32,18.81 9.13,18.73 8.93,18.65 8.77,18.51 8.61,18.37 8.50,18.18 8.40,18.00 8.35,17.79 8.31,17.58 8.34,17.37 8.36,17.16 8.45,16.97 8.55,16.78 8.70,16.63 8.84,16.47 9.03,16.38 9.22,16.28 9.43,16.25 9.64,16.22 9.85,16.26 10.06,16.29 10.49,16.79 10.91,17.29 10.92,17.45 10.93,17.60 10.91,17.76 10.88,17.92 10.81,18.06 10.75,18.21 10.65,18.33 10.56,18.46 10.43,18.55 10.31,18.65 10.16,18.72 10.02,18.78 9.86,18.81 9.71,18.84 9.55,18.83 9.39,18.82 9.24,18.78 9.09,18.73 8.95,18.65 8.82,18.57 8.71,18.46 8.59,18.35 8.51,18.21 8.43,18.08 8.38,17.93 8.33,17.77 7.40,17.38 6.47,16.99 6.20,15.73 5.93,14.48 5.90,13.33 5.86,12.18 5.64,10.88 5.42,9.58 4.88,8.07 4.34,6.57 3.42,5.80 2.49,5.02 0.81,3.25 -0.86,1.48 -1.03,1.35 -1.19,1.22 -1.32,1.06 -1.45,0.90 -1.54,0.72 -1.63,0.53 -1.67,0.33 -1.71,0.12 -1.70,-0.07 -1.69,-0.28 -1.63,-0.48 -1.57,-0.68 -1.46,-0.86 -1.36,-1.03 -1.22,-1.18 -1.07,-1.33 -0.90,-1.44 -0.72,-1.55 -0.52,-1.61 -0.33,-1.68 -0.12,-1.69 0.07,-1.71 0.28,-1.67 0.48,-1.64 0.67,-1.56 0.86,-1.48 0.86,-1.48 L 0.86,-1.48 Z">
        </path>
    </g>
    <g transform="translate(116.1276858916242 235.51124900695174) rotate(0 13.191986083984375 10)"><text x="0" y="0"
            font-family="Virgil, Segoe UI Emoji" font-size="16px" fill="#1e1e1e" text-anchor="start"
            style="white-space: pre;" direction="ltr" dominant-baseline="text-before-edge">45ยบ</text></g>
    <g transform="translate(101.23971737384659 213.2912960356175) rotate(0 6.3119964599609375 10)"><text x="0" y="0"
            font-family="Virgil, Segoe UI Emoji" font-size="16px" fill="#1e1e1e" text-anchor="start"
            style="white-space: pre;" direction="ltr" dominant-baseline="text-before-edge">G</text></g>
    <g stroke-linecap="round">
        <g
            transform="translate(181.90946037584786 275.84858683764014) rotate(0 -53.53745752508098 -0.37140152654700387)">
            <path d="M0.66 -0.63 C-17.32 -0.69, -89.32 -0.06, -107.73 -0.11" stroke="#1e1e1e" stroke-width="1.5"
                fill="none" stroke-dasharray="1.5 7"></path>
        </g>
    </g>
    <mask></mask>
    <g stroke-linecap="round">
        <g transform="translate(182.53858439914916 273.8039337619109) rotate(0 -0.771022404115115 22.734238155628532)">
            <path d="M0.12 1.15 C-0.32 8.36, -1.53 37.09, -1.66 44.32" stroke="#1e1e1e" stroke-width="1.5" fill="none"
                stroke-dasharray="1.5 7"></path>
        </g>
    </g>
    <mask></mask>
    <g transform="translate(147.9367631175769 206.01582025119478) rotate(0 15.9119873046875 10)"><text x="0" y="0"
            font-family="Virgil, Segoe UI Emoji" font-size="16px" fill="#e03131" text-anchor="start"
            style="white-space: pre;" direction="ltr" dominant-baseline="text-before-edge">IMR</text></g>
    <g stroke-linecap="round">
        <g
            transform="translate(176.87646818943745 176.28971015020784) rotate(0 -47.52265197321071 0.12538348129180577)">
            <path d="M-0.51 -0.52 C-16.27 -0.48, -78.77 0.37, -94.53 0.77" stroke="#1e1e1e" stroke-width="1.5"
                fill="none" stroke-dasharray="1.5 7"></path>
        </g>
    </g>
    <mask></mask>
    <g transform="translate(44.617759411313045 170.5104627108003) rotate(0 11.847991943359375 10)"><text x="0" y="0"
            font-family="Virgil, Segoe UI Emoji" font-size="16px" fill="#1e1e1e" text-anchor="start"
            style="white-space: pre;" direction="ltr" dominant-baseline="text-before-edge">Po'</text></g>
    <g transform="translate(170.8707643231612 323.60611529452217) rotate(0 9.167991638183594 10)"><text x="0" y="0"
            font-family="Virgil, Segoe UI Emoji" font-size="16px" fill="#1e1e1e" text-anchor="start"
            style="white-space: pre;" direction="ltr" dominant-baseline="text-before-edge">Pi'</text></g>
    <g transform="translate(10 281.76860926801544) rotate(0 32.34397888183594 10)"><text x="0" y="0"
            font-family="Virgil, Segoe UI Emoji" font-size="16px" fill="#1e1e1e" text-anchor="start"
            style="white-space: pre;" direction="ltr" dominant-baseline="text-before-edge">P3(Pno')</text></g>
    <g transform="translate(33.981709963767344 97.49570819273151) rotate(0 20.90398406982422 10)"><text x="0" y="0"
            font-family="Virgil, Segoe UI Emoji" font-size="16px" fill="#1e1e1e" text-anchor="start"
            style="white-space: pre;" direction="ltr" dominant-baseline="text-before-edge">OIP3</text></g>
</svg>