<svg version="1.1" xmlns="http://www.w3.org/2000/svg" viewBox="0 0 836.2934299963127 250.4818966036571"
    width="836.2934299963127" height="250.4818966036571">
    <!-- svg-source:excalidraw -->

    <defs>
        <style class="style-fonts">
            @font-face {
                font-family: "Virgil";
                src: url("https://excalidraw.com/Virgil.woff2");
            }

            @font-face {
                font-family: "Cascadia";
                src: url("https://excalidraw.com/Cascadia.woff2");
            }
        </style>

    </defs>
    <rect x="0" y="0" width="836.2934299963127" height="250.4818966036571" fill="#ffffff"></rect>
    <g stroke-linecap="round">
        <g transform="translate(33.22214068092961 46.2603563631551) rotate(0 104.19560950348318 -0.49204599466634136)">
            <path
                d="M-0.42 0.52 C34.34 0.45, 173.9 -1.36, 208.81 -1.5 M1.57 -0.25 C36.18 -0.09, 173.61 -0.01, 208.13 -0.38"
                stroke="#1e1e1e" stroke-width="1" fill="none"></path>
        </g>
    </g>
    <mask></mask>
    <g stroke-linecap="round"
        transform="translate(10 32.186331708046254) rotate(0 12.666622189597945 13.018472805975676)">
        <path
            d="M17.74 0.64 C19.98 1.57, 22.29 5.38, 23.53 8.19 C24.77 11, 25.69 14.97, 25.17 17.49 C24.65 20.01, 22.79 22.05, 20.43 23.3 C18.07 24.55, 13.65 25.12, 11 24.98 C8.35 24.83, 6.22 24.26, 4.51 22.44 C2.79 20.62, 0.97 16.77, 0.72 14.06 C0.46 11.36, 1.51 8.41, 2.97 6.21 C4.43 4.01, 6.58 1.41, 9.47 0.86 C12.36 0.31, 18.43 2.37, 20.31 2.91 C22.2 3.45, 20.88 4.17, 20.79 4.09 M12.07 0.55 C14.46 0.61, 17.31 2.03, 19.26 3.61 C21.22 5.19, 23.08 7.55, 23.8 10.01 C24.52 12.47, 24.57 15.69, 23.58 18.38 C22.6 21.06, 20.29 25.18, 17.87 26.14 C15.44 27.11, 11.72 25.34, 9.05 24.17 C6.39 23, 3.28 21.3, 1.88 19.14 C0.47 16.99, 0.06 14.09, 0.63 11.25 C1.2 8.41, 3.19 3.91, 5.29 2.1 C7.39 0.3, 12.01 0.8, 13.24 0.44 C14.47 0.09, 12.92 -0.33, 12.66 -0.03"
            stroke="#1e1e1e" stroke-width="1" fill="none"></path>
    </g>
    <g stroke-linecap="round">
        <g transform="translate(243.62880927480677 45.55665513039966) rotate(0 56.20079293571898 -8.681741440961787)">
            <path
                d="M0.86 0.18 C3.96 -4.61, 12.63 -31.48, 19.09 -29.48 C25.56 -27.47, 33 11.48, 39.64 12.21 C46.27 12.94, 52.6 -24.89, 58.9 -25.11 C65.19 -25.33, 71.66 11.11, 77.41 10.89 C83.16 10.66, 87.64 -23.54, 93.39 -26.45 C99.14 -29.35, 108.67 -10.05, 111.9 -6.55 M-0.15 -0.77 C2.75 -5.35, 11.61 -30.12, 18.19 -28.27 C24.78 -26.41, 32.62 9.76, 39.36 10.37 C46.11 10.97, 52.02 -24.74, 58.66 -24.62 C65.31 -24.5, 73.29 11.05, 79.23 11.08 C85.18 11.12, 88.78 -21.78, 94.33 -24.41 C99.89 -27.05, 109.57 -7.84, 112.55 -4.72"
                stroke="#1e1e1e" stroke-width="1" fill="none"></path>
        </g>
    </g>
    <mask></mask>
    <g stroke-linecap="round">
        <g transform="translate(357.6284089811884 42.74185019937789) rotate(0 50.490344197592826 -1.1132696286215236)">
            <path
                d="M-0.59 0.57 C16.54 0.29, 84.62 -0.44, 101.57 -0.93 M1.3 -0.17 C18.39 -0.88, 84.26 -2.57, 100.75 -2.8"
                stroke="#1e1e1e" stroke-width="1" fill="none"></path>
        </g>
    </g>
    <mask></mask>
    <g stroke-linecap="round">
        <g transform="translate(458.96138649797206 41.334447733866995) rotate(0 65.98121851845038 -13.555379123672552)">
            <path
                d="M-1.09 1.11 C4.26 1.2, 27.43 5.04, 31.31 -0.04 C35.19 -5.12, 24.09 -29.34, 22.19 -29.34 C20.28 -29.35, 13.78 -4.53, 19.87 -0.09 C25.95 4.36, 53.98 2.08, 58.7 -2.68 C63.42 -7.44, 50.89 -29.26, 48.18 -28.66 C45.47 -28.05, 35.14 -3.75, 42.44 0.95 C49.74 5.66, 86.51 4.96, 91.98 -0.42 C97.45 -5.8, 78.77 -31.6, 75.26 -31.33 C71.75 -31.06, 61.39 -4.34, 70.9 1.21 C80.42 6.75, 122.37 2.03, 132.34 1.95 M0.54 0.65 C5.83 0.44, 26.54 2.95, 30.54 -1.81 C34.54 -6.58, 26.32 -28.38, 24.54 -27.92 C22.75 -27.45, 14.35 -3.38, 19.83 0.97 C25.3 5.31, 52.95 3.31, 57.39 -1.84 C61.83 -7, 48.96 -30.23, 46.47 -29.96 C43.99 -29.7, 35 -5.15, 42.46 -0.26 C49.92 4.63, 86.03 4.21, 91.21 -0.62 C96.4 -5.45, 76.84 -29.52, 73.57 -29.25 C70.3 -28.98, 61.67 -4.4, 71.58 1.02 C81.49 6.43, 122.9 3.39, 133.05 3.22"
                stroke="#1e1e1e" stroke-width="1" fill="none"></path>
        </g>
    </g>
    <mask></mask>
    <g stroke-linecap="round">
        <g
            transform="translate(556.2434762499336 168.98797605295096) rotate(88.68935239580844 55.64602156721541 -9.382033409401885)">
            <path
                d="M0.78 1.18 C4.14 -3.5, 13.15 -30.31, 19.57 -28.54 C26 -26.77, 32.49 11.05, 39.33 11.78 C46.18 12.52, 54.04 -23.87, 60.64 -24.15 C67.24 -24.42, 73.24 10.47, 78.94 10.14 C84.64 9.82, 89.44 -23.36, 94.83 -26.12 C100.21 -28.88, 108.55 -9.72, 111.26 -6.43 M-0.27 0.75 C3.03 -4.26, 12.4 -31.99, 18.93 -30.5 C25.46 -29.01, 31.83 8.49, 38.89 9.72 C45.96 10.94, 54.82 -23.2, 61.32 -23.16 C67.83 -23.12, 72.65 10.08, 77.9 9.95 C83.16 9.82, 87.25 -21.5, 92.86 -23.91 C98.47 -26.33, 108.16 -7.34, 111.57 -4.53"
                stroke="#1e1e1e" stroke-width="1" fill="none"></path>
        </g>
    </g>
    <mask></mask>
    <g stroke-linecap="round">
        <g transform="translate(671.4791587901155 134.22301045758536) rotate(0 29.092850108444694 0.4169181779248632)">
            <path d="M0.99 0.5 C10.34 0.64, 46.82 1.13, 55.96 1.32 M0.05 -0.29 C9.77 -0.54, 48.45 -0.49, 58.13 -0.47"
                stroke="#1e1e1e" stroke-width="1" fill="none"></path>
        </g>
    </g>
    <mask></mask>
    <g stroke-linecap="round">
        <g transform="translate(677.108768652159 151.11184004371597) rotate(0 24.629748661118228 -1.025690915357501)">
            <path
                d="M0.01 -0.39 C8.27 -0.72, 42.32 -1.6, 50.71 -1.51 M-1.45 -1.64 C6.63 -1.88, 41.61 -0.38, 50.15 -0.39"
                stroke="#1e1e1e" stroke-width="1" fill="none"></path>
        </g>
    </g>
    <mask></mask>
    <g stroke-linecap="round">
        <g transform="translate(599.7016330490604 41.334447733866995) rotate(0 0.6201269959656059 32.595080355833545)">
            <path d="M-0.14 0.35 C0.51 10.98, 2.52 53.68, 2.91 64.6 M-1.67 -0.5 C-1.08 10.17, 1.54 54.98, 2.02 65.69"
                stroke="#1e1e1e" stroke-width="1" fill="none"></path>
        </g>
    </g>
    <mask></mask>
    <g stroke-linecap="round">
        <g transform="translate(599.7016330490604 43.44555143213333) rotate(0 49.72065057353704 -1.8389712907463576)">
            <path
                d="M-0.92 -0.85 C15.65 -1.74, 83.77 -4.27, 100.36 -4.99 M0.8 1.32 C17.23 0.53, 83.89 -2.91, 100.01 -3.86"
                stroke="#1e1e1e" stroke-width="1" fill="none"></path>
        </g>
    </g>
    <mask></mask>
    <g stroke-linecap="round">
        <g transform="translate(698.2198056348224 39.927045268356125) rotate(0 0.8383748773669595 47.112652034947416)">
            <path d="M-0.81 0.07 C-0.5 15.97, 1.95 79.64, 2.49 95.17 M0.96 -0.94 C1.03 14.66, 1.3 77.68, 1.37 93.5"
                stroke="#1e1e1e" stroke-width="1" fill="none"></path>
        </g>
    </g>
    <mask></mask>
    <g stroke-linecap="round">
        <g transform="translate(701.0346105658441 153.2229437419823) rotate(0 0.2719090834352187 32.2519366074487)">
            <path d="M-0.85 0.61 C-0.63 11.16, 0.83 53.16, 1.39 63.65 M0.91 -0.11 C0.96 10.52, 0.19 53.89, 0.44 64.62"
                stroke="#1e1e1e" stroke-width="1" fill="none"></path>
        </g>
    </g>
    <mask></mask>
    <g stroke-linecap="round">
        <g transform="translate(701.7383117985995 217.96345715548296) rotate(0 -326.7860136538725 4.423023987984585)">
            <path
                d="M0.4 0.98 C-108.28 2.19, -543.87 5.96, -652.78 7.16 M-0.86 0.45 C-109.66 1.82, -545.68 7.46, -653.97 8.39"
                stroke="#1e1e1e" stroke-width="1" fill="none"></path>
        </g>
    </g>
    <mask></mask>
    <g stroke-linecap="round"
        transform="translate(19.851817258576204 210.22274359517309) rotate(0 13.370323422353408 15.129576504242005)">
        <path
            d="M17.27 1.22 C19.97 1.87, 23.52 4.06, 25.19 6.79 C26.87 9.53, 27.66 14.25, 27.31 17.63 C26.95 21.01, 25.26 25.06, 23.05 27.06 C20.84 29.07, 16.96 29.62, 14.07 29.68 C11.18 29.73, 7.95 29.09, 5.71 27.42 C3.47 25.74, 1.38 22.78, 0.64 19.61 C-0.11 16.44, 0.02 11.34, 1.25 8.38 C2.49 5.43, 5.25 3.13, 8.06 1.88 C10.86 0.63, 15.97 0.81, 18.07 0.89 C20.17 0.98, 20.71 1.94, 20.66 2.4 M10.87 0.04 C13.5 -0.91, 17.08 0.73, 19.43 2.15 C21.79 3.57, 24 5.87, 25.03 8.56 C26.05 11.25, 26.12 15.41, 25.59 18.31 C25.05 21.2, 23.9 23.93, 21.8 25.95 C19.7 27.96, 15.77 30.24, 12.98 30.41 C10.2 30.59, 7.02 29.13, 5.1 27 C3.19 24.87, 2.15 21.12, 1.5 17.62 C0.85 14.11, 0.01 9.05, 1.19 5.99 C2.38 2.93, 7.12 0, 8.62 -0.76 C10.13 -1.52, 9.91 0.92, 10.23 1.42"
            stroke="#1e1e1e" stroke-width="1" fill="none"></path>
    </g>
    <g stroke-linecap="round"
        transform="translate(783.3676547982308 20.92711198395918) rotate(0 14.425875271486575 14.42587527148656)">
        <path
            d="M8.31 0.78 C10.89 -0.77, 14.42 -0.07, 17.48 0.64 C20.53 1.36, 24.92 2.76, 26.66 5.07 C28.4 7.38, 28.18 11.19, 27.89 14.52 C27.6 17.85, 27.03 22.55, 24.94 25.04 C22.85 27.53, 18.52 29.05, 15.36 29.45 C12.19 29.84, 8.46 29.06, 5.97 27.39 C3.48 25.72, 1.18 22.56, 0.41 19.41 C-0.36 16.27, -0.19 11.57, 1.36 8.52 C2.9 5.46, 8.17 2.25, 9.66 1.1 C11.16 -0.05, 10.39 1.56, 10.34 1.61 M21.2 0.35 C23.7 1.25, 25.46 4.64, 26.62 7.72 C27.78 10.81, 28.57 16.1, 28.18 18.85 C27.8 21.61, 26.83 22.41, 24.3 24.26 C21.78 26.11, 16.07 29.76, 13.02 29.93 C9.97 30.1, 7.98 27.37, 5.99 25.29 C4 23.22, 1.83 20.75, 1.09 17.48 C0.35 14.21, -0.03 8.46, 1.53 5.66 C3.1 2.87, 7.47 1.46, 10.5 0.74 C13.53 0.02, 18.09 1.16, 19.72 1.33 C21.36 1.49, 20.58 1.68, 20.33 1.74"
            stroke="#1e1e1e" stroke-width="1" fill="none"></path>
    </g>
    <g stroke-linecap="round"
        transform="translate(789.7009658930298 203.8894325003741) rotate(0 18.296232051641482 17.24068020250833)">
        <path
            d="M16.43 0.3 C20.15 -0.45, 24.93 0.64, 28.14 2.62 C31.35 4.59, 34.48 8.48, 35.67 12.13 C36.86 15.78, 36.82 21.03, 35.28 24.54 C33.75 28.05, 29.98 31.66, 26.48 33.19 C22.98 34.72, 18.24 34.74, 14.3 33.72 C10.36 32.7, 5.06 30.05, 2.84 27.08 C0.61 24.1, 0.53 19.37, 0.95 15.89 C1.37 12.41, 2.63 9.03, 5.35 6.22 C8.08 3.41, 15.25 -0.1, 17.29 -0.96 C19.33 -1.82, 17.49 0.52, 17.58 1.06 M12.95 1.3 C16.1 0.14, 20.12 1.02, 23.73 2.1 C27.33 3.18, 32.43 4.97, 34.58 7.79 C36.73 10.61, 37.33 15.54, 36.61 19.01 C35.89 22.49, 33.27 26.16, 30.26 28.62 C27.25 31.07, 22.61 33.3, 18.55 33.75 C14.48 34.19, 8.94 33.67, 5.87 31.27 C2.8 28.86, 0.89 23.26, 0.12 19.32 C-0.66 15.37, -0.49 10.68, 1.21 7.6 C2.9 4.51, 8.51 1.75, 10.29 0.78 C12.07 -0.19, 11.64 1.59, 11.91 1.76"
            stroke="#1e1e1e" stroke-width="1" fill="none"></path>
    </g>
    <g stroke-linecap="round">
        <g transform="translate(697.5161044020668 41.334447733866995) rotate(0 44.35364861918822 -1.6625817251295132)">
            <path
                d="M-0.26 -0.81 C14.54 -1.62, 74.23 -3.95, 88.96 -4.71 M1.81 1.38 C16.46 0.71, 73.96 -2.43, 88.17 -3.42"
                stroke="#1e1e1e" stroke-width="1" fill="none"></path>
        </g>
    </g>
    <mask></mask>
    <g stroke-linecap="round">
        <g transform="translate(701.7383117985995 218.6671583882384) rotate(0 43.73355085778269 1.617877817735721)">
            <path d="M0.69 -0.76 C15.35 -0.28, 73.53 3.43, 87.88 3.99 M-0.41 1.46 C14.15 2.08, 72.89 1.79, 87.26 2.12"
                stroke="#1e1e1e" stroke-width="1" fill="none"></path>
        </g>
    </g>
    <mask></mask>
</svg>